<svg width="96" height="96" viewBox="0 0 96 96" fill="none" xmlns="http://www.w3.org/2000/svg">
<path d="M93.0773 54.4053C82.992 38.9627 84.0639 23.1334 79.2026 15.6907C74.3413 8.24802 59.8533 -4.58398 25.6213 17.776C-8.61072 40.136 0.0959482 64.4427 5.44528 72.6267C30.4799 110.955 110.941 81.7547 93.0773 54.4053Z" fill="#EFEFEF"/>
<path d="M78.6455 81.0768L80.5311 79.1912L84.3024 82.9624L82.4167 84.848L78.6455 81.0768Z" fill="#A4AFC1"/>
<path d="M79.1147 72.1646L82.886 68.3933L84.7716 70.2789L81.0004 74.0502L79.1147 72.1646Z" fill="#A4AFC1"/>
<path d="M68.2764 83.0035L72.0476 79.2323L73.9332 81.1179L70.162 84.8892L68.2764 83.0035Z" fill="#A4AFC1"/>
<path d="M16 16.5786C13.7947 16.5786 12 14.7839 12 12.5786C12 10.3733 13.7947 8.57861 16 8.57861C18.2053 8.57861 20 10.3733 20 12.5786C20 14.7839 18.2053 16.5786 16 16.5786ZM16 11.2453C15.2667 11.2453 14.6667 11.8453 14.6667 12.5786C14.6667 13.3119 15.2667 13.9119 16 13.9119C16.7333 13.9119 17.3333 13.3119 17.3333 12.5786C17.3333 11.8453 16.7333 11.2453 16 11.2453Z" fill="#A4AFC1"/>
<path d="M62 20.6666H23.3333C20.3867 20.6666 18 23.0533 18 26C18 28.9466 20.3867 31.3333 23.3333 31.3333H64.6667V23.3333C64.6667 21.8613 63.472 20.6666 62 20.6666Z" fill="#F8A387"/>
<path d="M78 58H68C64.6853 58 62 55.3147 62 52C62 48.6853 64.6853 46 68 46H78V58Z" fill="#F8A387"/>
<path d="M70 31.3333H64.6667H23.3333C20.3867 31.3333 18 28.9467 18 26V67.3333C18 70.2667 20.4 72.6667 23.3333 72.6667H70C71.4667 72.6667 72.6667 71.4667 72.6667 70V58H68C64.6853 58 62 55.3147 62 52C62 48.6853 64.6853 46 68 46H72.6667V35.224V34C72.6667 32.5333 71.4667 31.3333 70 31.3333ZM40 64.6667L34 53.3333L40 42L46 53.3333L40 64.6667Z" fill="#F3F3F1"/>
<path d="M40 42L34 53.3333L40 64.6667L46 53.3333L40 42Z" fill="#F8A387"/>
<path d="M24 26C24 23.0533 26.3867 20.6666 29.3333 20.6666H23.3333C20.3867 20.6666 18 23.0533 18 26C18 28.9466 20.3867 31.3333 23.3333 31.3333H29.3333C26.3867 31.3333 24 28.9466 24 26Z" fill="#FF5F00"/>
<path d="M68 52C68 48.6853 70.6854 46 74 46H68C64.6853 46 62 48.6853 62 52C62 55.3147 64.6853 58 68 58H74C70.6854 58 68 55.3147 68 52Z" fill="#FF5F00"/>
<path d="M46 64.6667L52 53.3333L46 42L43 47.6667L46 53.3333L43 59L46 64.6667Z" fill="#D5DBE1"/>
<path d="M24 67.3333V31.3333H23.3333C20.3867 31.3333 18 28.9467 18 26V67.3333C18 70.2667 20.4 72.6667 23.3333 72.6667H29.3333C26.4 72.6667 24 70.2667 24 67.3333Z" fill="#D5DBE1"/>
<path d="M40 53.3333L43 47.6667L40 42L34 53.3333L40 64.6667L43 59L40 53.3333Z" fill="#FF5F00"/>
<path d="M70 74.6667H23.3333C19.288 74.6667 16 71.3787 16 67.3334V26H20V67.3334C20 69.1707 21.496 70.6667 23.3333 70.6667H70C70.3627 70.6667 70.6667 70.3627 70.6667 70V58H74.6667V70C74.6667 72.5734 72.5733 74.6667 70 74.6667Z" fill="black"/>
<path d="M78 60H68C63.5893 60 60 56.4107 60 52C60 47.5893 63.5893 44 68 44H78C79.104 44 80 44.896 80 46V58C80 59.104 79.104 60 78 60ZM68 48C65.7947 48 64 49.7947 64 52C64 54.2053 65.7947 56 68 56H76V48H68Z" fill="black"/>
<path d="M74.6667 46H70.6667V34C70.6667 33.6373 70.3627 33.3333 70 33.3333H23.3333C19.288 33.3333 16 30.0453 16 26C16 21.9546 19.288 18.6666 23.3333 18.6666H62C64.5733 18.6666 66.6667 20.76 66.6667 23.3333V29.3333H70C72.5733 29.3333 74.6667 31.4266 74.6667 34V46ZM23.3333 22.6666C21.496 22.6666 20 24.1626 20 26C20 27.8373 21.496 29.3333 23.3333 29.3333H62.6667V23.3333C62.6667 22.9653 62.368 22.6666 62 22.6666H23.3333Z" fill="black"/>
<path d="M40 66.6666C39.2613 66.6666 38.5787 66.2586 38.232 65.6026L32.232 54.2693C31.9227 53.6853 31.9227 52.984 32.232 52.4L38.232 41.0666C38.9253 39.7546 41.0747 39.7546 41.768 41.0666L47.768 52.4C48.0773 52.984 48.0773 53.6853 47.768 54.2693L41.768 65.6026C41.4213 66.2586 40.7387 66.6666 40 66.6666ZM36.264 53.3333L40 60.392L43.736 53.3333L40 46.2746L36.264 53.3333Z" fill="black"/>
</svg>
